# xmcd
#
# Track frame offsets:
#	150
#	12923
#	27673
#	43140
#	58750
#	73260
#	90630
#	103573
#	119003
#	132440
#	148255
#	161455
#	173523
#	188745
#
# Disc length: 2753 seconds
#
# Revision: 0
# Processed by: cddbd v1.5.2PL0 Copyright (c) Steve Scherf et al.
# Submitted via: dBpowerAMP V4.0
#
DISCID=cc0abf0e
DTITLE=Kjell Fredriksson - Min röda Ford Mustang
DYEAR=1900
DGENRE=Country
TTITLE0=Min röda Ford Mustang
TTITLE1=Kärlek är inget slit och släng
TTITLE2=Den första kyssen
TTITLE3=Rallare-Anton
TTITLE4=Det blir bättre i morgon
TTITLE5=Sjömannen
TTITLE6=Du och bara du
TTITLE7=Lätt att fånga
TTITLE8=Det finns många skäl
TTITLE9=Verner Bengtsson
TTITLE10=En andra chans
TTITLE11=Ditt falska lilla hjärta
TTITLE12=Varje dag varje natt
TTITLE13=Låt mig aldrig ensam gå
EXTD=
EXTT0=
EXTT1=
EXTT2=
EXTT3=
EXTT4=
EXTT5=
EXTT6=
EXTT7=
EXTT8=
EXTT9=
EXTT10=
EXTT11=
EXTT12=
EXTT13=
PLAYORDER=
